<mxfile host="app.diagrams.net" modified="2022-02-06T23:49:41.035Z" agent="5.0 (Macintosh; Intel Mac OS X 10_15_7) AppleWebKit/605.1.15 (KHTML, like Gecko) Version/15.1 Safari/605.1.15" etag="7wG6vPyqtR1q9SEEX8S-" version="16.5.3" type="github">
  <diagram id="4d9_lw18VRiKHgwqIARj" name="Page-1">
    <mxGraphModel dx="1234" dy="825" grid="1" gridSize="10" guides="1" tooltips="1" connect="1" arrows="1" fold="1" page="1" pageScale="1" pageWidth="850" pageHeight="1100" math="0" shadow="0">
      <root>
        <mxCell id="0" />
        <mxCell id="1" parent="0" />
        <mxCell id="Ux1Jz94SZOap6DYFeqx9-13" value="" style="edgeStyle=none;rounded=0;orthogonalLoop=1;jettySize=auto;html=1;fontSize=22;strokeWidth=5;" edge="1" parent="1" source="Ux1Jz94SZOap6DYFeqx9-2" target="Ux1Jz94SZOap6DYFeqx9-4">
          <mxGeometry relative="1" as="geometry" />
        </mxCell>
        <mxCell id="Ux1Jz94SZOap6DYFeqx9-2" value="&lt;font style=&quot;font-size: 32px&quot;&gt;Core&lt;/font&gt;" style="rounded=0;whiteSpace=wrap;html=1;shadow=0;glass=0;sketch=0;imageWidth=24;arcSize=12;fillColor=#FF3333;" vertex="1" parent="1">
          <mxGeometry x="365" y="350" width="120" height="60" as="geometry" />
        </mxCell>
        <mxCell id="Ux1Jz94SZOap6DYFeqx9-11" value="" style="edgeStyle=orthogonalEdgeStyle;rounded=0;orthogonalLoop=1;jettySize=auto;html=1;fontSize=22;strokeWidth=5;" edge="1" parent="1" source="Ux1Jz94SZOap6DYFeqx9-3" target="Ux1Jz94SZOap6DYFeqx9-2">
          <mxGeometry relative="1" as="geometry" />
        </mxCell>
        <mxCell id="Ux1Jz94SZOap6DYFeqx9-3" value="&lt;font style=&quot;font-size: 22px&quot;&gt;Benchmark&lt;/font&gt;" style="rounded=0;whiteSpace=wrap;html=1;shadow=0;glass=0;sketch=0;imageWidth=24;arcSize=12;fillColor=#66B2FF;" vertex="1" parent="1">
          <mxGeometry x="365" y="230" width="120" height="60" as="geometry" />
        </mxCell>
        <mxCell id="Ux1Jz94SZOap6DYFeqx9-12" style="rounded=0;orthogonalLoop=1;jettySize=auto;html=1;entryX=1;entryY=0.5;entryDx=0;entryDy=0;fontSize=22;strokeWidth=5;strokeColor=default;" edge="1" parent="1" source="Ux1Jz94SZOap6DYFeqx9-4" target="Ux1Jz94SZOap6DYFeqx9-3">
          <mxGeometry relative="1" as="geometry" />
        </mxCell>
        <mxCell id="Ux1Jz94SZOap6DYFeqx9-15" style="edgeStyle=none;rounded=0;orthogonalLoop=1;jettySize=auto;html=1;fontSize=22;strokeWidth=5;" edge="1" parent="1" source="Ux1Jz94SZOap6DYFeqx9-4">
          <mxGeometry relative="1" as="geometry">
            <mxPoint x="490" y="500" as="targetPoint" />
          </mxGeometry>
        </mxCell>
        <mxCell id="Ux1Jz94SZOap6DYFeqx9-4" value="&lt;font style=&quot;font-size: 22px&quot;&gt;Util&lt;/font&gt;" style="rounded=0;whiteSpace=wrap;html=1;shadow=0;glass=0;sketch=0;imageWidth=24;arcSize=12;fillColor=#66B2FF;" vertex="1" parent="1">
          <mxGeometry x="570" y="350" width="120" height="60" as="geometry" />
        </mxCell>
        <mxCell id="Ux1Jz94SZOap6DYFeqx9-14" value="" style="edgeStyle=none;rounded=0;orthogonalLoop=1;jettySize=auto;html=1;fontSize=22;strokeWidth=5;" edge="1" parent="1" source="Ux1Jz94SZOap6DYFeqx9-5" target="Ux1Jz94SZOap6DYFeqx9-4">
          <mxGeometry relative="1" as="geometry" />
        </mxCell>
        <mxCell id="Ux1Jz94SZOap6DYFeqx9-5" value="&lt;span style=&quot;font-size: 22px&quot;&gt;Viz&lt;/span&gt;" style="rounded=0;whiteSpace=wrap;html=1;shadow=0;glass=0;sketch=0;imageWidth=24;arcSize=12;fillColor=#66B2FF;" vertex="1" parent="1">
          <mxGeometry x="570" y="230" width="120" height="60" as="geometry" />
        </mxCell>
        <mxCell id="Ux1Jz94SZOap6DYFeqx9-10" style="edgeStyle=orthogonalEdgeStyle;rounded=0;orthogonalLoop=1;jettySize=auto;html=1;entryX=0.5;entryY=1;entryDx=0;entryDy=0;fontSize=22;strokeWidth=5;" edge="1" parent="1" source="Ux1Jz94SZOap6DYFeqx9-6" target="Ux1Jz94SZOap6DYFeqx9-2">
          <mxGeometry relative="1" as="geometry" />
        </mxCell>
        <mxCell id="Ux1Jz94SZOap6DYFeqx9-6" value="&lt;span style=&quot;font-size: 22px&quot;&gt;Network&lt;/span&gt;" style="rounded=0;whiteSpace=wrap;html=1;shadow=0;glass=0;sketch=0;imageWidth=24;arcSize=12;fillColor=#66B2FF;" vertex="1" parent="1">
          <mxGeometry x="365" y="470" width="120" height="60" as="geometry" />
        </mxCell>
        <mxCell id="Ux1Jz94SZOap6DYFeqx9-7" value="&lt;span style=&quot;font-size: 22px&quot;&gt;Renderer&lt;/span&gt;" style="rounded=0;whiteSpace=wrap;html=1;shadow=0;glass=0;sketch=0;imageWidth=24;arcSize=12;fillColor=#66B2FF;" vertex="1" parent="1">
          <mxGeometry x="200" y="470" width="120" height="60" as="geometry" />
        </mxCell>
        <mxCell id="Ux1Jz94SZOap6DYFeqx9-17" style="edgeStyle=none;rounded=0;orthogonalLoop=1;jettySize=auto;html=1;fontSize=22;strokeColor=default;strokeWidth=5;" edge="1" parent="1" source="Ux1Jz94SZOap6DYFeqx9-8" target="Ux1Jz94SZOap6DYFeqx9-3">
          <mxGeometry relative="1" as="geometry" />
        </mxCell>
        <mxCell id="Ux1Jz94SZOap6DYFeqx9-20" value="" style="edgeStyle=none;rounded=0;orthogonalLoop=1;jettySize=auto;html=1;fontSize=22;strokeColor=default;strokeWidth=5;" edge="1" parent="1" source="Ux1Jz94SZOap6DYFeqx9-8" target="Ux1Jz94SZOap6DYFeqx9-7">
          <mxGeometry relative="1" as="geometry" />
        </mxCell>
        <mxCell id="Ux1Jz94SZOap6DYFeqx9-22" value="" style="edgeStyle=none;rounded=0;orthogonalLoop=1;jettySize=auto;html=1;fontSize=22;strokeColor=default;strokeWidth=5;" edge="1" parent="1" source="Ux1Jz94SZOap6DYFeqx9-8" target="Ux1Jz94SZOap6DYFeqx9-21">
          <mxGeometry relative="1" as="geometry" />
        </mxCell>
        <mxCell id="Ux1Jz94SZOap6DYFeqx9-8" value="&lt;span style=&quot;font-size: 22px&quot;&gt;Env&lt;/span&gt;" style="rounded=0;whiteSpace=wrap;html=1;shadow=0;glass=0;sketch=0;imageWidth=24;arcSize=12;fillColor=#66B2FF;" vertex="1" parent="1">
          <mxGeometry x="30" y="350" width="120" height="60" as="geometry" />
        </mxCell>
        <mxCell id="Ux1Jz94SZOap6DYFeqx9-18" value="" style="edgeStyle=none;rounded=0;orthogonalLoop=1;jettySize=auto;html=1;fontSize=22;strokeColor=default;strokeWidth=5;" edge="1" parent="1" source="Ux1Jz94SZOap6DYFeqx9-9" target="Ux1Jz94SZOap6DYFeqx9-3">
          <mxGeometry relative="1" as="geometry" />
        </mxCell>
        <mxCell id="Ux1Jz94SZOap6DYFeqx9-19" style="edgeStyle=none;rounded=0;orthogonalLoop=1;jettySize=auto;html=1;fontSize=22;strokeColor=default;strokeWidth=5;" edge="1" parent="1" source="Ux1Jz94SZOap6DYFeqx9-9">
          <mxGeometry relative="1" as="geometry">
            <mxPoint x="360" y="360" as="targetPoint" />
          </mxGeometry>
        </mxCell>
        <mxCell id="Ux1Jz94SZOap6DYFeqx9-9" value="&lt;span style=&quot;font-size: 22px&quot;&gt;Controller&lt;/span&gt;" style="rounded=0;whiteSpace=wrap;html=1;shadow=0;glass=0;sketch=0;imageWidth=24;arcSize=12;fillColor=#66B2FF;" vertex="1" parent="1">
          <mxGeometry x="200" y="230" width="120" height="60" as="geometry" />
        </mxCell>
        <mxCell id="Ux1Jz94SZOap6DYFeqx9-23" value="" style="edgeStyle=none;rounded=0;orthogonalLoop=1;jettySize=auto;html=1;fontSize=22;strokeColor=default;strokeWidth=5;" edge="1" parent="1" source="Ux1Jz94SZOap6DYFeqx9-21" target="Ux1Jz94SZOap6DYFeqx9-2">
          <mxGeometry relative="1" as="geometry" />
        </mxCell>
        <mxCell id="Ux1Jz94SZOap6DYFeqx9-21" value="&lt;span style=&quot;font-size: 22px&quot;&gt;Sensing&lt;br&gt;&lt;/span&gt;" style="rounded=0;whiteSpace=wrap;html=1;shadow=0;glass=0;sketch=0;imageWidth=24;arcSize=12;fillColor=#FFFFFF;" vertex="1" parent="1">
          <mxGeometry x="200" y="350" width="120" height="60" as="geometry" />
        </mxCell>
      </root>
    </mxGraphModel>
  </diagram>
</mxfile>
